<svg xmlns="http://www.w3.org/2000/svg" viewBox="0 0 512 512">
  <rect width="512" height="512" rx="104" fill="#ff2442"/>
  <path d="M132 162c0-37 30-67 67-67h114c43 0 78 35 78 78 0 30-17 56-42 69 31 12 53 42 53 77 0 47-38 85-85 85H199c-37 0-67-30-67-67V162z" fill="#ffffff"/>
  <path d="M194 163c0-9 7-16 16-16h100c18 0 33 15 33 33s-15 33-33 33H194v-50zm0 103h119c22 0 40 18 40 40s-18 40-40 40H210c-9 0-16-7-16-16v-64z" fill="#ff2442"/>
  <path d="M123 413h266" stroke="#111111" stroke-width="24" stroke-linecap="round"/>
</svg>
